<svg xmlns="http://www.w3.org/2000/svg" width="175" height="14" viewBox="0 0 175 14" fill="none"><path d="M1.31752 3.57795C2.0406 3.16157 3.06813 2.93445 4.09566 2.93445C6.11266 2.93445 6.37906 4.1079 6.37906 5.12993C6.37906 6.26552 6.30295 7.36326 6.30295 8.34744C6.30295 9.06665 6.341 9.71016 6.49323 10.2401H5.65598L5.35153 9.25592H5.27541C4.9329 9.78586 4.24788 10.3537 3.03007 10.3537C1.81226 10.3537 0.86084 9.55874 0.86084 8.30959C0.86084 6.64405 2.30699 6.11411 4.40011 6.11411C4.66651 6.11411 4.9329 6.11411 5.1993 6.15196C5.23736 5.84914 5.23736 5.62202 5.23736 5.3949C5.23736 4.33501 4.89485 3.99434 3.75315 3.99434C3.10618 3.99434 2.15477 4.1836 1.62197 4.48643L1.31752 3.57795ZM5.23736 8.19603V7.02258C4.97096 7.02258 4.70457 6.98473 4.40011 6.98473C3.22035 6.98473 2.07865 7.21185 2.07865 8.19603C2.07865 8.87739 2.61145 9.33163 3.37258 9.33163C4.47622 9.33163 5.04707 8.68812 5.23736 8.19603Z" fill="#2E2425"></path><path d="M12.7727 4.06999H9.72813V10.2401H8.58643V3.08582H12.7727V4.06999Z" fill="#2E2425"></path><path d="M18.9375 9.63445C18.3667 10.0887 17.4533 10.3915 16.4639 10.3915C14.2566 10.3915 13.2671 8.91525 13.2671 6.64406C13.2671 4.22146 14.4088 2.89661 16.4258 2.89661C17.7197 2.89661 19.1659 3.31299 19.1659 5.73559C19.1659 6.03841 19.1278 6.37909 19.0898 6.79547H14.4468C14.4468 8.46101 15.0558 9.44519 16.7683 9.44519C17.4153 9.44519 18.1383 9.18022 18.4809 8.87739L18.9375 9.63445ZM14.4849 5.84914H18.0622C18.0622 4.41073 17.4533 3.88078 16.4639 3.88078C15.3222 3.88078 14.5991 4.44858 14.4849 5.84914Z" fill="#2E2425"></path><path d="M25.3692 7.06039H22.0963V10.2401H20.9546V3.08582H22.0963V6.07621H25.3692V3.08582H26.5109V10.2401H25.3692V7.06039Z" fill="#2E2425"></path><path d="M33.3614 4.06999H31.116V10.2401H29.9743V4.06999H27.729V3.08582H33.3994V4.06999H33.3614Z" fill="#2E2425"></path><path d="M39.1839 9.74802C38.6131 10.1644 37.7758 10.3915 36.9386 10.3915C34.7313 10.3915 33.894 8.91525 33.894 6.64406C33.894 4.22146 35.0357 2.89661 37.0147 2.89661C37.9281 2.89661 38.537 3.04802 39.0698 3.31299L38.7272 4.29717C38.2706 4.07005 37.7378 3.88078 37.1289 3.88078C35.7588 3.88078 35.0738 4.78926 35.0738 6.64406C35.0738 8.08248 35.6066 9.40734 37.205 9.40734C37.89 9.40734 38.4608 9.18022 38.8034 8.87739L39.1839 9.74802Z" fill="#2E2425"></path><path d="M45.1207 4.06999H42.8753V10.2401H41.7336V4.06999H39.4883V3.08582H45.1587V4.06999H45.1207Z" fill="#2E2425"></path><path d="M46.2627 3.08585C46.9097 3.048 47.5947 2.97229 48.6983 2.97229C50.6012 2.97229 51.3623 3.57794 51.3623 4.75138C51.3623 5.39489 51.0198 6.15195 50.1064 6.45477V6.53048C51.2481 6.7576 51.6287 7.3254 51.6287 8.27173C51.6287 9.748 50.525 10.3915 48.3939 10.3915C47.5947 10.3915 46.9097 10.3158 46.2627 10.2779V3.08585ZM48.8125 6.07624C49.4975 6.07624 50.1825 5.58416 50.1825 4.97851C50.1825 4.22144 49.7639 3.95647 48.6222 3.95647C48.0133 3.95647 47.7089 3.99432 47.3663 3.99432V6.07624H48.8125ZM47.4044 9.2559C47.7469 9.29376 48.0894 9.33161 48.5842 9.33161C49.8781 9.33161 50.487 8.99093 50.487 8.12031C50.487 7.43895 50.0303 6.94687 48.6983 6.94687H47.4425V9.2559H47.4044Z" fill="#2E2425"></path><path d="M56.1953 2.89661C58.3646 2.89661 59.354 4.37288 59.354 6.64406C59.354 9.06666 58.2123 10.3915 56.1953 10.3915C54.0261 10.3915 53.0366 8.91525 53.0366 6.64406C53.0366 4.22146 54.1783 2.89661 56.1953 2.89661ZM56.1953 9.40734C57.4893 9.40734 58.1362 8.53672 58.1362 6.64406C58.1362 5.16779 57.6034 3.88078 56.1953 3.88078C54.9014 3.88078 54.2544 4.75141 54.2544 6.64406C54.2164 8.12033 54.7492 9.40734 56.1953 9.40734Z" fill="#2E2425"></path><path d="M70.2764 9.63445C69.7056 10.0887 68.7922 10.3915 67.8027 10.3915C65.5954 10.3915 64.606 8.91525 64.606 6.64406C64.606 4.22146 65.7477 2.89661 67.7647 2.89661C69.0586 2.89661 70.5047 3.31299 70.5047 5.73559C70.5047 6.03841 70.4667 6.37909 70.4286 6.79547H65.7857C65.7857 8.46101 66.3946 9.44519 68.1072 9.44519C68.7541 9.44519 69.4772 9.18022 69.8197 8.87739L70.2764 9.63445ZM65.8238 5.84914H69.4011C69.4011 4.41073 68.7922 3.88078 67.8027 3.88078C66.661 3.88078 65.9379 4.44858 65.8238 5.84914Z" fill="#2E2425"></path><path d="M76.5553 10.2401V6.18983C76.5553 4.6757 76.3651 3.91864 75.1853 3.91864C74.31 3.91864 73.7011 4.52429 73.4728 5.3192V10.2401H72.3311V3.08587H73.1302L73.3586 3.95649H73.4347C73.9675 3.35084 74.5764 2.89661 75.68 2.89661C76.5934 2.89661 77.1643 3.19943 77.5068 4.07005C77.9634 3.31299 78.7626 2.89661 79.7521 2.89661C81.3505 2.89661 81.9975 3.54011 81.9975 5.92486V10.2401H80.8558V5.92486C80.8558 4.56214 80.6274 3.91864 79.4857 3.91864C78.5343 3.91864 78.0015 4.48643 77.7732 5.47061V10.2401H76.5553Z" fill="#2E2425"></path><path d="M83.9005 3.57795C84.6236 3.16157 85.6511 2.93445 86.6787 2.93445C88.6957 2.93445 88.9621 4.1079 88.9621 5.12993C88.9621 6.26552 88.886 7.36326 88.886 8.34744C88.886 9.06665 88.924 9.71016 89.0762 10.2401H88.239L87.9345 9.25592H87.8584C87.5159 9.78586 86.8309 10.3537 85.6131 10.3537C84.3953 10.3537 83.4438 9.55874 83.4438 8.30959C83.4438 6.64405 84.89 6.11411 86.9831 6.11411C87.2495 6.11411 87.5159 6.11411 87.7823 6.15196C87.8204 5.84914 87.8204 5.62202 87.8204 5.3949C87.8204 4.33501 87.4779 3.99434 86.3362 3.99434C85.6892 3.99434 84.7378 4.1836 84.205 4.48643L83.9005 3.57795ZM87.8204 8.19603V7.02258C87.554 7.02258 87.2876 6.98473 86.9831 6.98473C85.8034 6.98473 84.6617 7.21185 84.6617 8.19603C84.6617 8.87739 85.1945 9.33163 85.9556 9.33163C87.0212 9.33163 87.6301 8.68812 87.8204 8.19603Z" fill="#2E2425"></path><path d="M91.9305 0.095459C92.3872 0.095459 92.7678 0.473992 92.7678 0.890377C92.7678 1.30676 92.3872 1.64744 91.9305 1.64744C91.4739 1.64744 91.1313 1.30676 91.1313 0.890377C91.1313 0.473992 91.4739 0.095459 91.9305 0.095459ZM91.3977 3.048H92.5394V10.2022H91.3977V3.048Z" fill="#2E2425"></path><path d="M96.3072 8.46096C96.3072 9.14232 96.5355 9.40729 96.9541 9.40729C97.1825 9.40729 97.4869 9.36943 97.8294 9.25588L97.9436 10.1644C97.6392 10.3158 96.9922 10.4293 96.5736 10.4293C95.6983 10.4293 95.0894 9.97509 95.0894 8.83949V0.208984H96.2311V8.46096H96.3072Z" fill="#2E2425"></path><path d="M98.9712 5.58411H102.472V6.64399H98.9712V5.58411Z" fill="#2E2425"></path><path d="M110.35 5.96265L110.426 4.59994H110.35L109.817 5.69768L108.067 8.49881H107.648L105.821 5.69768L105.365 4.59994L105.479 5.96265V10.2401H104.413V3.08582H105.555L107.572 6.30333L107.99 7.1361H108.028L108.447 6.26547L110.35 3.08582H111.492V10.2401H110.35V5.96265Z" fill="#2E2425"></path><path d="M113.585 3.57795C114.308 3.16157 115.335 2.93445 116.363 2.93445C118.38 2.93445 118.646 4.1079 118.646 5.12993C118.646 6.26552 118.57 7.36326 118.57 8.34744C118.57 9.06665 118.608 9.71016 118.76 10.2401H117.923L117.619 9.25592H117.543C117.2 9.78586 116.515 10.3537 115.297 10.3537C114.079 10.3537 113.128 9.55874 113.128 8.30959C113.128 6.64405 114.574 6.11411 116.667 6.11411C116.934 6.11411 117.2 6.11411 117.466 6.15196C117.504 5.84914 117.504 5.62202 117.504 5.3949C117.504 4.33501 117.162 3.99434 116.02 3.99434C115.373 3.99434 114.422 4.1836 113.889 4.48643L113.585 3.57795ZM117.504 8.19603V7.02258C117.238 7.02258 116.972 6.98473 116.667 6.98473C115.487 6.98473 114.346 7.21185 114.346 8.19603C114.346 8.87739 114.879 9.33163 115.64 9.33163C116.705 9.33163 117.276 8.68812 117.504 8.19603Z" fill="#2E2425"></path><path d="M120.854 3.04802H121.653L121.881 3.91864H121.957C122.376 3.23728 123.137 2.89661 124.012 2.89661C125.915 2.89661 126.866 3.95649 126.866 6.49265C126.866 8.91525 125.573 10.3915 123.556 10.3915C122.832 10.3915 122.528 10.3158 122.033 10.0887V13.0791H120.892V3.04802H120.854ZM121.995 5.43276V8.99095C122.338 9.25592 122.756 9.40734 123.479 9.40734C124.773 9.40734 125.649 8.38531 125.649 6.49265C125.649 4.90282 125.154 3.91864 123.784 3.91864C122.756 3.88079 122.224 4.41073 121.995 5.43276Z" fill="#2E2425"></path><path d="M130.444 6.98469H129.797V10.2022H128.655V3.04797H129.797V6.30334L130.406 6.11408L132.727 3.08583H133.983L131.738 5.96266L131.129 6.4169L131.89 6.98469L134.288 10.2401H132.88L130.444 6.98469Z" fill="#2E2425"></path><path d="M140.605 9.63445C140.034 10.0887 139.121 10.3915 138.131 10.3915C135.924 10.3915 134.935 8.91525 134.935 6.64406C134.935 4.22146 136.076 2.89661 138.093 2.89661C139.387 2.89661 140.833 3.31299 140.833 5.73559C140.833 6.03841 140.795 6.37909 140.757 6.79547H136.152C136.152 8.46101 136.761 9.44519 138.474 9.44519C139.121 9.44519 139.844 9.18022 140.186 8.87739L140.605 9.63445ZM136.152 5.84914H139.73C139.73 4.41073 139.121 3.88078 138.131 3.88078C137.028 3.88078 136.305 4.44858 136.152 5.84914Z" fill="#2E2425"></path><path d="M147.265 4.06999H145.019V10.2401H143.878V4.06999H141.632V3.08582H147.303V4.06999H147.265Z" fill="#2E2425"></path><path d="M152.897 6.0005L152.935 5.12988H152.897L152.289 6.03835L149.054 10.2401H148.407V3.08582H149.548V7.43892L149.51 8.27169H149.586L150.157 7.40107L153.392 3.08582H154.077V10.2401H152.935V6.0005H152.897Z" fill="#2E2425"></path><path d="M160.661 7.06039H157.388V10.2401H156.246V3.08582H157.388V6.07621H160.661V3.08582H161.802V10.2401H160.661V7.06039Z" fill="#2E2425"></path><path d="M168.234 4.06999H165.19V10.2401H164.048V3.08582H168.234V4.06999Z" fill="#2E2425"></path><path d="M169.224 3.57795C169.947 3.16157 170.974 2.93445 172.002 2.93445C174.019 2.93445 174.285 4.1079 174.285 5.12993C174.285 6.26552 174.209 7.36326 174.209 8.34744C174.209 9.06665 174.247 9.71016 174.399 10.2401H173.562L173.258 9.25592H173.182C172.839 9.78586 172.154 10.3537 170.936 10.3537C169.718 10.3537 168.767 9.55874 168.767 8.30959C168.767 6.64405 170.213 6.11411 172.306 6.11411C172.573 6.11411 172.839 6.11411 173.106 6.15196C173.144 5.84914 173.144 5.62202 173.144 5.3949C173.144 4.33501 172.801 3.99434 171.659 3.99434C171.012 3.99434 170.061 4.1836 169.528 4.48643L169.224 3.57795ZM173.144 8.19603V7.02258C172.877 7.02258 172.611 6.98473 172.306 6.98473C171.127 6.98473 169.985 7.21185 169.985 8.19603C169.985 8.87739 170.518 9.33163 171.279 9.33163C172.382 9.33163 172.953 8.68812 173.144 8.19603Z" fill="#2E2425"></path></svg>